<?xml version="1.0" encoding="utf-8"?>
<!-- Generator: Adobe Illustrator 27.4.1, SVG Export Plug-In . SVG Version: 6.00 Build 0)  -->
<svg version="1.1" id="Layer_1" xmlns="http://www.w3.org/2000/svg" xmlns:xlink="http://www.w3.org/1999/xlink" x="0px" y="0px"
	 viewBox="0 0 358 138" style="enable-background:new 0 0 358 138;" xml:space="preserve">
<style type="text/css">
	.st0{fill:#5ECE71;}
</style>
<g>
	<path class="st0" d="M245.6,41.8h-31.9v92.4h31.9V41.8z"/>
	<path class="st0" d="M172.2,38.4c-11.9,0-24.1,2.9-27.2,8.2c0,0.1-0.1,0.1-0.1,0.2V8.8h-31.9V69v0.1c3.2,1.5,6.4,3.1,9.7,5
		c1.1,0.6,2.1,1.2,2.8,1.6c0.4,0.3,0.9,0.5,1.3,0.8c0,0-18.2,28.4-43.1,34.3c-14.7,3.5-32-0.7-35.6-15.4c-0.1-0.6-0.2-1.2-0.3-1.8
		c2.3-1.4,4.7-2.7,7.2-3.8c6.1-2.6,10.7-4.6,12.5-5.3c0.1-0.1,0.3-0.1,0.5-0.2h0c0,0,0,0,0,0c14.5-5.2,26.7-7,26.7-7
		c-11.1-1-20.6-0.2-28.5,1.4l0,0c0,0-0.1,0-0.2,0c-7.2,1.4-13.1,3.5-17.7,5.6C50.9,73.6,60.1,64.4,71,61.8c1-0.2,1.9-0.4,2.9-0.6
		c0.3,0,0.6-0.1,0.8-0.1c0.8-0.1,1.5-0.2,2.3-0.2c0.2,0,0.5,0,0.7-0.1c1-0.1,2-0.1,3-0.1c0.2,0,0.4,0,0.6,0c0.8,0,1.6,0,2.5,0.1
		c0.3,0,0.6,0,0.9,0.1s0.6,0,0.9,0.1c4.7,0.5,10.5,1.8,16.9,3.9V44.1c-3.1-1-6.4-1.9-9.8-2.7c-9-2.4-24.4-4.9-41.3-0.8
		c-27.1,6.6-34.8,26.6-34.8,51.1c0,3.1,0.2,6,0.7,8.8c-5.9,3.9-11.7,8.4-16.9,13.5c0,0,7.8-3.5,18.2-8.1c6.9,23.5,31,31.4,49.1,31.4
		c18.9,0,31-5.4,45.5-14.4v11.4h31.9V77.7c0-0.1,0.1-0.1,0.1-0.2v-1c3-8.1,8.2-10.2,13.9-10.2c7.6,0,12.3,5.4,12.3,13.9v54h31.9
		V71.1C203.1,51.2,190.7,38.4,172.2,38.4z"/>
	<path class="st0" d="M229.8,0.9c-9.6,0-16.4,6.8-16.4,16.4c0,9.6,6.8,16.4,16.4,16.4s16.4-6.8,16.4-16.4
		C246.2,7.7,239.4,0.9,229.8,0.9z"/>
	<path class="st0" d="M351.8,83L351.8,83l0-40.3h-31.9l-0.2,5.7C289,28.7,269.3,49,269.3,49c-9.4,8.6-14.8,22.1-14.8,39.1
		c0,30.1,18.1,48.1,41.7,48.1c8.8,0,17-2,24-11.7c0.8,2.3,2.6,7.8,3.9,9.7h33.2C351.5,124.8,351.6,92.5,351.8,83z M303.6,110.1
		c-10.3,0-17.6-9-17.6-21.7c0-12.7,7.3-21.7,17.6-21.7c7.2,0,13,4.4,15.8,11.4v20.5C316.6,105.6,310.8,110.1,303.6,110.1z"/>
</g>
</svg>
