<?xml version="1.0" encoding="utf-8"?>
<!-- Generator: Adobe Illustrator 26.0.1, SVG Export Plug-In . SVG Version: 6.00 Build 0)  -->
<svg version="1.1" id="Layer_1" xmlns="http://www.w3.org/2000/svg" xmlns:xlink="http://www.w3.org/1999/xlink" x="0px" y="0px"
	 viewBox="0 0 792 612" style="enable-background:new 0 0 792 612;" xml:space="preserve">
<style type="text/css">
	.st0{fill:#FFFFFF;}
</style>
<g>
	<rect x="429.72" y="261.77" class="st0" width="31.86" height="92.4"/>
	<path class="st0" d="M388.2,258.41c-11.93,0-24.13,2.85-27.16,8.15c-0.04,0.07-0.08,0.13-0.12,0.2v-37.93h-31.86V289v0.1
		c3.17,1.45,6.42,3.1,9.71,4.97c1.11,0.64,2.05,1.19,2.75,1.61c0.43,0.26,0.87,0.52,1.31,0.79c0.04,0.03-18.21,28.36-43.07,34.32
		c-14.69,3.52-32.04-0.74-35.55-15.43c-0.15-0.61-0.23-1.22-0.32-1.83c2.34-1.39,4.74-2.67,7.15-3.85
		c6.08-2.64,10.73-4.62,12.48-5.3c0.15-0.06,0.31-0.12,0.46-0.17c0,0,0.01,0,0.01,0c0,0,0,0,0.01,0c14.5-5.24,26.68-7.05,26.68-7.05
		c-11.06-0.95-20.55-0.18-28.5,1.38c0,0-0.01-0.01-0.01-0.01s-0.06,0.01-0.17,0.04c-7.19,1.44-13.11,3.52-17.71,5.61
		c2.56-10.59,11.8-19.78,22.74-22.4c0.96-0.23,1.93-0.41,2.91-0.56c0.28-0.04,0.56-0.08,0.84-0.12c0.76-0.1,1.52-0.18,2.29-0.24
		c0.25-0.02,0.49-0.04,0.74-0.06c0.98-0.06,1.97-0.09,2.96-0.09c0.19,0,0.39,0.01,0.58,0.01c0.82,0.01,1.64,0.04,2.46,0.1
		c0.29,0.02,0.58,0.04,0.87,0.06c0.29,0.02,0.57,0.05,0.86,0.08c4.71,0.48,10.49,1.75,16.9,3.92v-20.81
		c-3.09-0.95-6.38-1.88-9.78-2.71c-8.98-2.39-24.41-4.93-41.28-0.83c-27.14,6.59-34.83,26.61-34.83,51.07c0,3.12,0.25,6.03,0.7,8.78
		c-5.89,3.89-11.68,8.36-16.94,13.45c0,0,7.83-3.48,18.16-8.06c6.9,23.49,30.97,31.39,49.1,31.39c18.9,0,31.04-5.38,45.5-14.37
		v11.39h31.86v-56.51c0.04-0.07,0.08-0.15,0.12-0.22v-0.96c3.03-8.08,8.19-10.16,13.92-10.16c7.57,0,12.3,5.36,12.3,13.88v53.97
		h31.86v-63.12C419.12,271.18,406.66,258.41,388.2,258.41z"/>
	<path class="st0" d="M445.81,220.92c-9.62,0-16.4,6.78-16.4,16.4c0,9.62,6.78,16.4,16.4,16.4c9.62,0,16.4-6.78,16.4-16.4
		C462.21,227.7,455.43,220.92,445.81,220.92z"/>
	<path class="st0" d="M567.77,302.96h0.04l-0.03-40.27h-31.89l-0.17,5.72c-30.77-19.76-50.4,0.56-50.4,0.56
		c-9.39,8.58-14.84,22.12-14.84,39.12c0,30.14,18.12,48.07,41.67,48.07c8.83,0,16.96-1.99,23.98-11.7c0.81,2.26,2.63,7.8,3.92,9.71
		h33.19C567.54,344.83,567.59,312.45,567.77,302.96z M519.57,330.05c-10.33,0-17.61-8.96-17.61-21.68
		c0-12.72,7.28-21.68,17.61-21.68c7.24,0,12.99,4.41,15.77,11.43v20.5C532.56,325.64,526.82,330.05,519.57,330.05z"/>
</g>
</svg>
